# xmcd
#
# Track frame offsets: 
#        150
#        16491
#        34556
#        51896
#        65775
#        84623
#        100141
#        122637
#        140119
#        165659
#        186735
#        201155
#        223457
#        250705
#        269073
#        293580
#        311005
#
# Disc length: 4403 seconds
#
# Revision: 3
# Processed by: cddbd v1.5.2PL0 Copyright (c) Steve Scherf et al.
# Submitted via: ExactAudioCopy v1.0b3
#
DISCID=10113111
DTITLE=Подарок любимой женщине - Звездная коллекция 2
DYEAR=2002
DGENRE=Retro
TTITLE0=Любэ - Ты Неси Меня Река
TTITLE1=Ефрем Амирамов - Молодая
TTITLE2=Михаил Круг - Падал Снег
TTITLE3=Лариса Долина - Три Розы
TTITLE4=Михаил Боярский - Встреча В Пути
TTITLE5=Успенская - Пропадаю Я
TTITLE6=Виктор Королев - Пьяная Вишня
TTITLE7=Валерий Меладзе - Сэра
TTITLE8=Игорь Тальков - Чистые Пруды
TTITLE9=Анжелика Варум - Зимняя Вишня
TTITLE10=Шура - Не Верь Слезам
TTITLE11=Фристайл - Кораблик Любви
TTITLE12=Владимир Кузьмин - Я Не Забуду Тебя Никогда
TTITLE13=Диана Гурцкая - Ты Здесь
TTITLE14=Александр Иванов - Боже, Какой Пустяк!
TTITLE15=Пугачева Моисеев - Две Свечи
TTITLE16=Шуфутинский - Пусть Тебе Приснится Пальма Де Майорка
EXTD=YEAR: 2002
EXTT0=
EXTT1=
EXTT2=
EXTT3=
EXTT4=
EXTT5=
EXTT6=
EXTT7=
EXTT8=
EXTT9=
EXTT10=
EXTT11=
EXTT12=
EXTT13=
EXTT14=
EXTT15=
EXTT16=
PLAYORDER=
